<svg viewBox="0 0 33 33" fill="#00DD00" xmlns="http://www.w3.org/2000/svg">
    <mask id="a" style="mask-type:alpha" maskUnits="userSpaceOnUse" x="1" y="1" width="30" height="30">
        <path d="M16.269 1.816c7.954 0 14.427 6.36 14.427 14.184 0 7.823-6.473 14.19-14.427 14.19-7.955 0-14.421-6.367-14.421-14.19 0-7.824 6.466-14.184 14.42-14.184Z" fill="#00DD00" />
    </mask>
    <g mask="url(#a)" fill="#00DD00">
        <path d="M14.166 16c0-1.141.945-2.071 2.105-2.071 1.16 0 2.105.924 2.105 2.07 0 1.141-.945 2.07-2.105 2.07-1.16 0-2.105-.923-2.105-2.07ZM19.837 12.931l5.049-2.87a1.718 1.718 0 0 0 .378-2.715 12.588 12.588 0 0 0-5.868-3.335c-1.122-.28-2.212.539-2.212 1.68v5.74c.006 1.333 1.474 2.17 2.653 1.5ZM15.35 11.431V5.697c0-1.134-1.09-1.959-2.213-1.68A12.65 12.65 0 0 0 7.27 7.352c-.807.806-.618 2.145.378 2.716l5.049 2.87c1.185.663 2.654-.174 2.654-1.507ZM20.757 17.506l5.055 2.87c.996.564 2.27.056 2.578-1.03a12.196 12.196 0 0 0 0-6.683c-.309-1.09-1.582-1.592-2.578-1.028l-5.055 2.87a1.715 1.715 0 0 0 0 3ZM12.708 19.068l-5.049 2.87a1.718 1.718 0 0 0-.378 2.716 12.588 12.588 0 0 0 5.868 3.335c1.122.279 2.212-.54 2.212-1.68v-5.74c-.012-1.334-1.48-2.164-2.653-1.5ZM11.789 14.5l-5.055-2.87c-.996-.565-2.27-.057-2.578 1.028a12.198 12.198 0 0 0 0 6.683c.309 1.091 1.582 1.593 2.578 1.029l5.055-2.87a1.72 1.72 0 0 0 0-3ZM17.191 20.575v5.74c0 1.134 1.09 1.959 2.213 1.68a12.65 12.65 0 0 0 5.868-3.335c.807-.806.617-2.145-.378-2.715l-5.05-2.87c-1.184-.67-2.653.16-2.653 1.5Z" />
    </g>
    <path fill-rule="evenodd" clip-rule="evenodd" d="M16.268 32C7.286 32 0 24.84 0 16 0 7.166 7.286 0 16.268 0c8.988 0 16.274 7.166 16.268 16 0 8.834-7.28 16-16.268 16Zm14.428-16c0-7.823-6.473-14.184-14.427-14.184C8.314 1.816 1.847 8.176 1.847 16c0 7.823 6.467 14.19 14.422 14.19 7.954 0 14.427-6.367 14.427-14.19Z" fill="#00DD00" />
</svg>
